<svg width="400" height="386" xmlns="http://www.w3.org/2000/svg">

 <g>
  <title>background</title>
  <rect fill="none" id="canvas_background" height="402" width="582" y="-1" x="-1"/>
 </g>
 <g>
  <title>Layer 1</title>
  <g id="svg_1">
   <path fill="#db0000" id="svg_2" d="m299.860992,187.037994c-5.578003,-1.686005 -9.440002,-2.811005 -6.494995,-10.194c6.346985,-15.957001 7.013,-29.753998 0.117981,-39.577988c-12.916992,-18.465019 -48.243988,-17.459007 -88.73999,-0.503006c0,-0.007996 -12.701981,5.569992 -9.451004,-4.513016c6.233002,-20.032997 5.282013,-36.811996 -4.408997,-46.487984c-21.968002,-21.987 -80.395996,0.827995 -130.497997,50.911995c-37.51399,37.537003 -59.30399,77.307999 -59.30399,111.678009c0,65.780991 84.349999,105.759018 166.871995,105.759018c108.175003,0 180.13298,-62.837006 180.13298,-112.74202c0.000031,-30.139999 -25.395966,-47.258011 -48.225983,-54.331009zm-131.684998,143.502991c-65.839996,6.494995 -122.689003,-23.259003 -126.968006,-66.492004c-4.271999,-43.217987 45.655003,-83.535995 111.492008,-90.04599c65.862991,-6.509995 122.68898,23.244003 126.973007,66.462006c4.252991,43.248016 -45.649002,83.56601 -111.497009,90.075989z"/>
   <path fill="#ff912b" id="svg_3" d="m371.709015,66.668999c-26.121002,-28.962997 -64.656982,-40.003998 -100.225983,-32.444l-0.014008,0c-8.22699,1.765003 -13.46402,9.854 -11.70401,18.069c1.746002,8.226002 9.839996,13.486 18.06601,11.718002c25.315002,-5.363003 52.686981,2.492996 71.263,23.066002c18.546997,20.580994 23.59201,48.632996 15.647003,73.231003l0,0.007996c-2.58902,8.011993 1.789978,16.570999 9.80899,19.160004c7.98999,2.603989 16.592987,-1.791 19.174988,-9.764999c0,-0.029999 0,-0.059006 0,-0.074005c11.17099,-34.591995 4.10498,-74.037003 -22.015991,-102.969002z"/>
   <path fill="#ff8d23" id="svg_4" d="m325.78299,161.492996c6.894012,2.197998 14.285004,-1.560989 16.503998,-8.455994c5.451996,-16.852005 2.049011,-36.056 -10.690002,-50.164009c-12.723999,-14.108002 -31.492981,-19.464005 -48.824982,-15.779007c-7.088013,1.509003 -11.600006,8.478004 -10.068024,15.564003c1.501007,7.066002 8.477997,11.599998 15.528015,10.068001l0,0.014999c8.477997,-1.790001 17.665985,0.820999 23.880005,7.694c6.229004,6.887001 7.901001,16.297997 5.222992,24.538994l0.014008,0c-2.218994,6.888016 1.554016,14.278015 8.43399,16.519012z"/>
   <ellipse ry="84" rx="129.5" id="svg_6" cy="250" cx="160.5" stroke-width="NaN" fill="#ffffff"/>
   <path fill="#000000" id="svg_5" d="m174.748993,207.279007c-31.32901,-8.166992 -66.746002,7.442001 -80.351006,35.06601c-13.863998,28.155991 -0.454994,59.404007 31.195999,69.64299c32.78701,10.563995 71.441017,-5.652008 84.883018,-36.013c13.248993,-29.739014 -3.299011,-60.322006 -35.728012,-68.695999zm-23.912994,71.905991c-6.384995,10.149994 -20.011002,14.602997 -30.282997,9.912994c-10.131004,-4.600983 -13.109001,-16.40799 -6.75,-26.320984c6.288002,-9.854004 19.474998,-14.264008 29.676003,-9.987015c10.315994,4.409012 13.600998,16.126999 7.356995,26.395004zm20.973007,-26.942993c-2.292999,3.936005 -7.390991,5.829987 -11.380997,4.201996c-3.921005,-1.626999 -5.153,-6.022003 -2.919006,-9.897995c2.293015,-3.847 7.180008,-5.710999 11.093002,-4.173004c3.972992,1.466003 5.406998,5.903992 3.207001,9.869003z"/>
  </g>
 </g>
</svg>