<?xml version="1.0" standalone="no"?><!DOCTYPE svg PUBLIC "-//W3C//DTD SVG 1.1//EN" "http://www.w3.org/Graphics/SVG/1.1/DTD/svg11.dtd"><svg t="1535288983039" class="icon" style="" viewBox="0 0 1027 1024" version="1.1" xmlns="http://www.w3.org/2000/svg" p-id="1119" xmlns:xlink="http://www.w3.org/1999/xlink" width="200.5859375" height="200"><defs><style type="text/css"></style></defs><path d="M512 112.64c220.16 0 399.36 179.2 399.36 399.36s-179.2 399.36-399.36 399.36-399.36-179.2-399.36-399.36 179.2-399.36 399.36-399.36m0-112.64C229.376 0 0 229.376 0 512s229.376 512 512 512 512-229.376 512-512S794.624 0 512 0z" fill="#1296db" p-id="1120"></path><path d="M730.112 606.208H509.952c-33.792 0-61.44-27.648-61.44-61.44V312.32c0-33.792 27.648-61.44 61.44-61.44s61.44 27.648 61.44 61.44v171.008h158.72c33.792 0 61.44 27.648 61.44 61.44s-27.648 61.44-61.44 61.44z" fill="#1296db" p-id="1121"></path></svg>