<?xml version="1.0" standalone="no"?><!DOCTYPE svg PUBLIC "-//W3C//DTD SVG 1.1//EN" "http://www.w3.org/Graphics/SVG/1.1/DTD/svg11.dtd"><svg t="1535367651172" class="icon" style="" viewBox="0 0 1024 1024" version="1.1" xmlns="http://www.w3.org/2000/svg" p-id="2035" xmlns:xlink="http://www.w3.org/1999/xlink" width="200" height="200"><defs><style type="text/css"></style></defs><path d="M798.912 780.16H218.752a79.424 79.424 0 0 1-79.296-79.296V323.136c0-43.648 35.584-79.296 79.296-79.296h580.224a79.36 79.36 0 0 1 79.232 79.296v377.728a79.36 79.36 0 0 1-79.296 79.296zM218.752 323.136v377.728h580.352l-0.128-377.728H218.752z m-139.392 602.56h190.464a39.552 39.552 0 1 0 0-79.232H79.36v-185.664a39.552 39.552 0 0 0-39.616-39.616 39.552 39.552 0 0 0-39.68 39.552v185.664c0 43.648 35.584 79.296 79.296 79.296z m905.088-304.512a39.488 39.488 0 0 0-39.616 39.616v185.6h-190.528a39.552 39.552 0 1 0 0 79.232h190.528A79.36 79.36 0 0 0 1024.064 846.4v-185.6a39.616 39.616 0 0 0-39.616-39.616zM0.064 177.536v185.664a39.616 39.616 0 1 0 79.232 0V177.536h190.464a39.552 39.552 0 1 0 0-79.232H79.36C35.648 98.304 0.064 133.952 0.064 177.536z m1024 185.664v-185.6a79.36 79.36 0 0 0-79.232-79.232h-190.528a39.552 39.552 0 1 0 0 79.232h190.528v185.6c0 21.824 17.6 39.552 39.616 39.552A39.488 39.488 0 0 0 1024.064 363.2z" fill="#ffffff" p-id="2036"></path><path d="M798.912 780.16H218.752a79.424 79.424 0 0 1-79.296-79.296V323.136c0-43.648 35.584-79.296 79.296-79.296h580.224a79.36 79.36 0 0 1 79.232 79.296v377.728a79.36 79.36 0 0 1-79.296 79.296zM218.752 323.136v377.728h580.352l-0.128-377.728H218.752z m-139.392 602.56h190.464a39.552 39.552 0 1 0 0-79.232H79.36v-185.664a39.552 39.552 0 0 0-39.616-39.616 39.552 39.552 0 0 0-39.68 39.552v185.664c0 43.648 35.584 79.296 79.296 79.296z m905.088-304.512a39.488 39.488 0 0 0-39.616 39.616v185.6h-190.528a39.552 39.552 0 1 0 0 79.232h190.528A79.36 79.36 0 0 0 1024.064 846.4v-185.6a39.616 39.616 0 0 0-39.616-39.616zM0.064 177.536v185.664a39.616 39.616 0 1 0 79.232 0V177.536h190.464a39.552 39.552 0 1 0 0-79.232H79.36C35.648 98.304 0.064 133.952 0.064 177.536z m1024 185.664v-185.6a79.36 79.36 0 0 0-79.232-79.232h-190.528a39.552 39.552 0 1 0 0 79.232h190.528v185.6c0 21.824 17.6 39.552 39.616 39.552A39.488 39.488 0 0 0 1024.064 363.2z" fill="#ffffff" p-id="2037"></path><path d="M798.912 780.16H218.752a79.424 79.424 0 0 1-79.296-79.296V323.136c0-43.648 35.584-79.296 79.296-79.296h580.224a79.36 79.36 0 0 1 79.232 79.296v377.728a79.36 79.36 0 0 1-79.296 79.296zM218.752 323.136v377.728h580.352l-0.128-377.728H218.752z m-139.392 602.56h190.464a39.552 39.552 0 1 0 0-79.232H79.36v-185.664a39.552 39.552 0 0 0-39.616-39.616 39.552 39.552 0 0 0-39.68 39.552v185.664c0 43.648 35.584 79.296 79.296 79.296z m905.088-304.512a39.488 39.488 0 0 0-39.616 39.616v185.6h-190.528a39.552 39.552 0 1 0 0 79.232h190.528A79.36 79.36 0 0 0 1024.064 846.4v-185.6a39.616 39.616 0 0 0-39.616-39.616zM0.064 177.536v185.664a39.616 39.616 0 1 0 79.232 0V177.536h190.464a39.552 39.552 0 1 0 0-79.232H79.36C35.648 98.304 0.064 133.952 0.064 177.536z m1024 185.664v-185.6a79.36 79.36 0 0 0-79.232-79.232h-190.528a39.552 39.552 0 1 0 0 79.232h190.528v185.6c0 21.824 17.6 39.552 39.616 39.552A39.488 39.488 0 0 0 1024.064 363.2z" fill="#ffffff" p-id="2038"></path></svg>